/* XPM */
static char * hint_xpm[] = {
"72 20 117 2",
"  	c #FFFFFF",
". 	c #C3C3C3",
"+ 	c #000000",
"@ 	c #DCDCDC",
"# 	c #E0E0E0",
"$ 	c #C0C0C0",
"% 	c #F3F3F3",
"& 	c #AFAFAF",
"* 	c #707070",
"= 	c #3B3B3B",
"- 	c #565656",
"; 	c #878787",
"> 	c #C7C7C7",
", 	c #F6F6F6",
"' 	c #E3E3E3",
") 	c #3D3D3D",
"! 	c #808080",
"~ 	c #CFCFCF",
"{ 	c #F7F7F7",
"] 	c #2E2E2E",
"^ 	c #D4D4D4",
"/ 	c #FBFBFB",
"( 	c #4B4B4B",
"_ 	c #2A2A2A",
": 	c #626262",
"< 	c #898989",
"[ 	c #C8C8C8",
"} 	c #F8F8F8",
"| 	c #EBEBEB",
"1 	c #EDEDED",
"2 	c #494949",
"3 	c #A1A1A1",
"4 	c #BCBCBC",
"5 	c #353535",
"6 	c #8D8D8D",
"7 	c #F0F0F0",
"8 	c #717171",
"9 	c #AAAAAA",
"0 	c #A3A3A3",
"a 	c #8C8C8C",
"b 	c #E5E5E5",
"c 	c #FAFAFA",
"d 	c #E4E4E4",
"e 	c #B1B1B1",
"f 	c #B3B3B3",
"g 	c #F5F5F5",
"h 	c #787878",
"i 	c #6E6E6E",
"j 	c #B5B5B5",
"k 	c #0D0D0D",
"l 	c #FCFCFC",
"m 	c #737373",
"n 	c #777777",
"o 	c #D5D5D5",
"p 	c #FDFDFD",
"q 	c #F2F2F2",
"r 	c #E2E2E2",
"s 	c #B7B7B7",
"t 	c #E8E8E8",
"u 	c #C2C2C2",
"v 	c #BBBBBB",
"w 	c #CACACA",
"x 	c #9F9F9F",
"y 	c #EEEEEE",
"z 	c #ADADAD",
"A 	c #1C1C1C",
"B 	c #F4F4F4",
"C 	c #828282",
"D 	c #606060",
"E 	c #FEFEFE",
"F 	c #E9E9E9",
"G 	c #323232",
"H 	c #4D4D4D",
"I 	c #D2D2D2",
"J 	c #949494",
"K 	c #CDCDCD",
"L 	c #DDDDDD",
"M 	c #535353",
"N 	c #7C7C7C",
"O 	c #ECECEC",
"P 	c #B0B0B0",
"Q 	c #F9F9F9",
"R 	c #D7D7D7",
"S 	c #383838",
"T 	c #9D9D9D",
"U 	c #555555",
"V 	c #F1F1F1",
"W 	c #868686",
"X 	c #CECECE",
"Y 	c #8B8B8B",
"Z 	c #4F4F4F",
"` 	c #A7A7A7",
" .	c #C6C6C6",
"..	c #B4B4B4",
"+.	c #BABABA",
"@.	c #767676",
"#.	c #818181",
"$.	c #5F5F5F",
"%.	c #999999",
"&.	c #E7E7E7",
"*.	c #D6D6D6",
"=.	c #848484",
"-.	c #929292",
";.	c #A8A8A8",
">.	c #ABABAB",
",.	c #EFEFEF",
"'.	c #C5C5C5",
").	c #8A8A8A",
"!.	c #5C5C5C",
"~.	c #222222",
"{.	c #474747",
"].	c #838383",
"^.	c #9B9B9B",
"/.	c #E6E6E6",
"(.	c #454545",
"_.	c #858585",
":.	c #C9C9C9",
"                                                                                                                                                ",
"                                                                                                                                                ",
"                                                                                                                                                ",
"  . + + + @                                                                                                                       # + + + $     ",
"  . + + + @       % & * = - ; > ,     ' + + + + ) ! ~           { ] + ^               / > ; ( _ : < [ {     ' + + + + + + + + }   # + + + $     ",
"  . + |         1 2 + + + + + + 3     ' + + + + + + + 4         [ + 5 6             7 8 + + + + + + + 9     ' + + + + + + + + }       1 + $     ",
"  . + |         0 + a b c , d e e     ' + f     g $ + 5 /       h i j k 7         l m + n o g p q r & s     ' + f                     1 + $     ",
"  . + |         ! k {                 ' + f         a + t     t + u 1 + v         w + ! /                   ' + f                     1 + $     ",
"  . + |         x + y                 ' + f         a + t     z A B   C D E       a + r                     ' + f                     1 + $     ",
"  . + |         F G H z I | E         ' + f     g u k 5 /   / 2 J     K + L       M G E                     ' + + + + + + + N         1 + $     ",
"  . + |           O 0 H + + 2 P Q     ' + + + + + + + 4     I + R     Q S T       G U                       ' + + + + + + + N         1 + $     ",
"  . + |                 V R 3 + W E   ' + + + + = ! X       Y Z p       0 _ ,     M G E                     ' + f                     1 + $     ",
"  . + |                       ` + #   ' + f               7 k + + + + + + +  .    a + r                     ' + f                     1 + $     ",
"  . + |                       ..+ K   ' + f               +.+ + + + + + + + @.    w + #./                   ' + f                     1 + $     ",
"  . + |         T f r % l % [ G + #   ' + f             E $.) Q           %.+ &.  / 8 + n *., p q r & s     ' + f                     1 + $     ",
"  . + |         =.+ + + + + + + -.    ' + f             @ + ;.            @ + >.    ,.i + + + + + + + 9     ' + + + + + + + + b       1 + $     ",
"  . + |         % '.).!.~.{.].> l     ' + f             ^.+ /.            E : (./     /  ._.2 _ D ).:.{     ' + + + + + + + + b       1 + $     ",
"  . + + + @                                                                                                                       # + + + $     ",
"  . + + + @                                                                                                                       # + + + $     ",
"                                                                                                                                                "};
