/* XPM */
static char *pixil_frame_0__5_1715076436[] = {
/* columns rows colors chars-per-pixel */
"10 10 4 1 ",
"  c black",
". c #B4B4B4",
"X c #FFB5EA",
"o c white",
/* pixels */
"XX      XX",
"XX oooo XX",
"XX      XX",
"XXXX  XXXX",
"          ",
"          ",
"   ....   ",
"   ....   ",
"          ",
"          "
};
